<?xml version="1.0" encoding="utf-8"?><!-- Uploaded to: SVG Repo, www.svgrepo.com, Generator: SVG Repo Mixer Tools -->
<svg fill="#000000" width="800px" height="800px" viewBox="0 -2.5 29 29" xmlns="http://www.w3.org/2000/svg"><path d="m1.334 2.666h26.665c.011 0 .024.001.037.001.737 0 1.334-.597 1.334-1.334s-.597-1.334-1.334-1.334c-.013 0-.026 0-.039.001h.002-26.665c-.72.021-1.296.61-1.296 1.333s.576 1.312 1.294 1.333h.002z"/><path d="m1.334 7.999h19.555c.011 0 .024.001.037.001.737 0 1.334-.597 1.334-1.334s-.597-1.334-1.334-1.334c-.013 0-.026 0-.039.001h.002-19.555c-.72.021-1.296.61-1.296 1.333s.576 1.312 1.294 1.333h.002z"/><path d="m27.999 10.667h-26.665c-.72.021-1.296.61-1.296 1.333s.576 1.312 1.294 1.333h.002 26.665c.72-.021 1.296-.61 1.296-1.333s-.576-1.312-1.294-1.333z"/><path d="m27.999 21.333h-26.665c-.72.021-1.296.61-1.296 1.333s.576 1.312 1.294 1.333h.002 26.665c.72-.021 1.296-.61 1.296-1.333s-.576-1.312-1.294-1.333z"/><path d="m1.334 18.666h19.555c.72-.021 1.296-.61 1.296-1.333s-.576-1.312-1.294-1.333h-.002-19.555c-.72.021-1.296.61-1.296 1.333s.576 1.312 1.294 1.333z"/></svg>