<?xml version="1.0" encoding="utf-8"?>
<svg version="1.2" baseProfile="tiny" xmlns="http://www.w3.org/2000/svg" xmlns:xlink="http://www.w3.org/1999/xlink" x="0px"
	 y="0px" viewBox="0 0 2550 2550" overflow="visible" xml:space="preserve">
	 <style>
		#background,
		#btm-arrows,
		#top-arrows {
			transform-origin: center;
		}

		#background {
			-webkit-animation: cont-spin 15s linear infinite;
			animation: cont-spin 15s linear infinite;
		}

		#btm-arrows,
		#top-arrows {
			-webkit-animation: clock-spin cubic-bezier(.62, 0, .52, 1.3) 10s infinite;
			animation: clock-spin cubic-bezier(.62, 0, .52, 1.3) 10s infinite;
		}

		#top-arrows {
			-webkit-animation-delay: 150ms;
			animation-delay: 150ms;
		}

		@-webkit-keyframes clock-spin {

			0%,
			15% {
				transform: rotate(0deg);
			}

			25%,
			40% {
				transform: rotate(90deg);
			}

			50%,
			65% {
				transform: rotate(180deg);
			}

			75%,
			90% {
				transform: rotate(270deg);
			}

			100% {
				transform: rotate(360deg);
			}
		}

		@keyframes clock-spin {

			0%,
			15% {
				transform: rotate(0deg);
			}

			25%,
			40% {
				transform: rotate(90deg);
			}

			50%,
			65% {
				transform: rotate(180deg);
			}

			75%,
			90% {
				transform: rotate(270deg);
			}

			100% {
				transform: rotate(360deg);
			}
		}

		@-webkit-keyframes cont-spin {
			from {
				transform: rotate(0deg);
			}

			to {
				transform: rotate(360deg);
			}
		}

		@keyframes cont-spin {
			from {
				transform: rotate(0deg);
			}

			to {
				transform: rotate(360deg);
			}
		}
	</style>
	<defs>
		<linearGradient 
		id="outline-gradient" 
		gradientUnits="userSpaceOnUse" 
		x1="0%" y1="0%" x2="100%" y2="0%" >
			<stop offset="0%" stop-color="rgb(139,139,139)"/>
			<stop offset="100%" stop-color="rgb(255,255,255)"/>
			<animateTransform
				attributeName="gradientTransform"
				type="rotate"
				from="140 1275 1275"
				to="-220 1275 1275"
				dur="10s"
				repeatCount="indefinite"/>
		</linearGradient>
		<linearGradient 
		id="middle-gradient" 
		gradientUnits="userSpaceOnUse" 
		x1="0%" y1="0%" x2="100%" y2="0%" >
			<stop offset="0%" stop-color="rgba(255,255,255,0.95)"/>
			<stop offset="100%" stop-color="rgba(255,255,255,1)"/>
			<animateTransform
				attributeName="gradientTransform"
				type="rotate"
				from="140 1275 1275"
				to="-220 1275 1275"
				dur="10s"
				repeatCount="indefinite"/>
		</linearGradient>
		<linearGradient 
		id="inner-gradient" 
		gradientUnits="userSpaceOnUse" 
		x1="0%" y1="0%" x2="100%" y2="0%" >
			<stop offset="0%" stop-color="rgba(0,0,0,0.6)"/>
			<stop offset="100%" stop-color="rgba(0,0,0,0.5)"/>
			<animateTransform
				attributeName="gradientTransform"
				type="rotate"
				from="-220 1275 1275"
				to="140 1275 1275"
				dur="10s"
				repeatCount="indefinite"/>
		</linearGradient>
		<linearGradient 
		id="arrows-gradient" 
		gradientUnits="userSpaceOnUse" 
		x1="0%" y1="0%" x2="100%" y2="0%" >
			<stop offset="0%" stop-color="rgba(255,255,255,0.25)"/>
			<stop offset="100%" stop-color="rgba(255,255,255,0.3)"/>
			<animateTransform
				attributeName="gradientTransform"
				type="rotate"
				from="140 1275 1275"
				to="-220 1275 1275"
				dur="10s"
				repeatCount="indefinite"/>
		</linearGradient>
	</defs>
<g id="background">
	<path fill="url(#inner-gradient)" d="M2258.7,1397.4l2.2-21.9c3.4-33.3,5.1-67.1,5.1-100.4c0-198.4-58.5-389.8-169.2-553.5
		c-53.4-78.9-117.8-149.7-191.4-210.4c-68.4-56.4-144-103.4-224.6-139.5l-20.1-9L1602.4,185H947.6l-58.4,177.6l-20.1,9
		c-80.6,36.2-156.1,83.1-224.6,139.5c-73.6,60.7-138,131.5-191.4,210.4C342.5,885.2,284,1076.6,284,1275c0,33.3,1.7,67.1,5.1,100.4
		l2.2,21.9l-124.9,139.4l327.3,566.4l183.3-38.3l17.9,12.9c79.5,57.4,166.8,102.6,259.3,134.2c103,35.2,210.8,53,320.7,53
		c109.8,0,217.7-17.8,320.7-53c92.6-31.6,179.8-76.8,259.3-134.2l17.9-12.9l183.3,38.3l327.3-566.4L2258.7,1397.4z"/>
	<path fill="url(#middle-gradient)" d="M2310.7,1380.5c3.5-35,5.3-70.4,5.3-105.5c0-208.4-61.5-409.5-177.8-581.5c-56.1-82.9-123.7-157.2-201-221
		C1865.3,413.2,1786,364,1701.3,326l-62.8-191H911.5l-62.8,191c-84.7,38-164,87.3-235.9,146.6c-77.3,63.7-144.9,138.1-201,221
		C295.5,865.5,234,1066.6,234,1275c0,35.1,1.8,70.5,5.3,105.5l-134.3,150l363.6,629.1l197.1-41.2c83.6,60.4,175.1,107.8,272.5,141
		c108.2,36.9,221.5,55.7,336.8,55.7c115.3,0,228.7-18.7,336.8-55.7c97.3-33.2,188.9-80.6,272.5-141l197.1,41.2l363.6-629.1
		L2310.7,1380.5z M1872.9,2064.9l-17.9,12.9c-79.5,57.4-166.8,102.6-259.3,134.2c-103,35.2-210.8,53-320.7,53
		c-109.8,0-217.7-17.8-320.7-53c-92.6-31.6-179.8-76.8-259.3-134.2l-17.9-12.9l-183.3,38.3l-327.3-566.4l124.9-139.4l-2.2-21.9
		c-3.4-33.3-5.1-67.1-5.1-100.4c0-198.4,58.5-389.8,169.2-553.5c53.4-78.9,117.8-149.7,191.4-210.4c68.4-56.4,144-103.4,224.6-139.5
		l20.1-9L947.6,185h654.7l58.4,177.6l20.1,9c80.6,36.2,156.1,83.1,224.6,139.5c73.6,60.7,138,131.5,191.4,210.4
		C2207.5,885.2,2266,1076.6,2266,1275c0,33.4-1.7,67.1-5.1,100.4l-2.2,21.9l124.9,139.4l-327.3,566.4L1872.9,2064.9z"/>
	<path fill="url(#outline-gradient)" d="M2361.2,1363.3c2.4-29.4,3.6-59,3.6-88.3c0-218.4-64.4-429.2-186.2-609.5
		c-58.7-86.9-129.4-164.8-210.3-231.5c-69.5-57.4-145.7-105.8-226.7-144.3L1674.3,85H875.7l-67.2,204.7
		c-81.1,38.5-157.2,86.9-226.7,144.3c-80.9,66.8-151.7,144.7-210.3,231.5C249.6,845.8,185.3,1056.6,185.3,1275
		c0,29.3,1.2,58.9,3.6,88.3L45,1524.1l399.3,691.8l211-44.2c82.5,57.2,172.2,102.5,267.1,134.9c113.3,38.7,231.9,58.4,352.6,58.4
		c120.7,0,239.3-19.6,352.6-58.4c94.8-32.4,184.6-77.8,267.1-134.9l211,44.2l399.3-691.8L2361.2,1363.3z M2081.4,2159.5l-197.1-41.2
		c-83.6,60.4-175.1,107.8-272.5,141c-108.2,36.9-221.5,55.7-336.8,55.7c-115.3,0-228.7-18.7-336.8-55.7
		c-97.3-33.2-188.9-80.6-272.5-141l-197.1,41.2L105,1530.5l134.3-150c-3.5-35-5.3-70.4-5.3-105.5c0-208.4,61.5-409.5,177.8-581.5
		c56.1-82.9,123.7-157.2,201-221C684.7,413.2,764,364,848.7,326l62.8-191h727.1l62.8,191c84.7,38,164,87.3,235.9,146.6
		c77.3,63.7,144.9,138.1,201,221c116.3,172,177.8,373.1,177.8,581.5c0,35.1-1.8,70.5-5.3,105.5l134.3,150L2081.4,2159.5z"/>
	<circle id="Measurement" fill="none" cx="1275" cy="1275" r="1275"/>
</g>
<g id="btm-arrows">
	<path fill="url(#arrows-gradient)" stroke="url(#outline-gradient)" stroke-width="10" d="M2038.5,1614.8l-74.6-43.1c0.7-1.6,1.4-3.2,2.1-4.8c39.1-92.5,59-190.8,59-292c0-101.2-19.8-199.4-59-292
		c-37.8-89.3-91.8-169.5-160.7-238.4S1656.3,621.8,1567,584c-65.6-27.8-134.1-45.8-204.5-53.9v-86.2h-175V530
		c-70.4,8.2-138.9,26.2-204.5,53.9c-89.3,37.8-169.5,91.8-238.4,160.7C675.8,813.5,621.8,893.7,584,983c-39.1,92.5-59,190.8-59,292
		c0,101.2,19.8,199.4,59,292c0.7,1.6,1.4,3.2,2.1,4.8l-74.6,43.1l87.5,151.6l74.6-43.1c21.6,28.9,45.3,56.3,71.1,82.1
		c68.8,68.8,149,122.9,238.4,160.7c92.5,39.1,190.8,59,292,59s199.4-19.8,292-59c89.3-37.8,169.5-91.8,238.4-160.7
		c25.8-25.8,49.5-53.2,71.1-82.1l74.6,43.1L2038.5,1614.8z M1275,1825c-171.7,0-325.3-79.1-426.3-202.8l144.3-83.3l47.6,82.4
		l181.5-315.5l-364-0.5l47.4,82.1L761,1470.7c-23.2-60.8-36-126.8-36-195.7c0-273.5,200.7-501,462.5-543v166.9h-95.1l182.5,315
		l182.5-315h-94.9V732c261.8,42,462.5,269.5,462.5,543c0,68.9-12.7,134.9-36,195.7l-144.5-83.4l-26.1,45.2l73.7-127.6l-364,0.5
		l181.5,315.5l47.4-82.1l144.3,83.3C1600.3,1745.9,1446.7,1825,1275,1825z"/>
</g>
<g id="top-arrows">
	<path fill="url(#middle-gradient)" stroke="url(#inner-gradient)" stroke-width="10" d="M1883.9,996.3c-51.9-113.5-134-210-238-279.5c-109.9-73.4-238-112.3-370.6-112.3h-20.1v279.2h-190.3
		l210,360l210-360h-189.7V644.9c237.3,7.5,450.7,148.7,551,365.1l-113.7,41l220.1,182.7l49.9-280L1883.9,996.3z M1415.2,923.6
		l-140.3,240.6l-140.3-240.6H1415.2z M1925.1,1158.9l-113.5-94.2l139.2-50.2L1925.1,1158.9z"/>
	<path fill="url(#middle-gradient)" stroke="url(#inner-gradient)" stroke-width="10" d="M1613,1472.1l105.9-183.5l-416.8,1.9l206.8,361.9l94.8-164.3l206.9,119.5
		c-125.1,201.8-354.1,316-591.7,294.6l21.4-119l-268.3,99.3l217.5,183.2l22.3-124c21.3,2,42.6,3,63.8,3
		c102.7,0,204.3-23.6,297.3-69.4c118.5-58.4,216.2-150,282.5-264.8l10-17.4l-241.8-139.6L1613,1472.1z M1371.1,1330.3l278.5-1.2
		l-140.3,243.1L1371.1,1330.3z M1162.7,1990.5l-112.2-94.5l138.3-51.2L1162.7,1990.5z"/>
	<path fill="url(#middle-gradient)" stroke="url(#inner-gradient)" stroke-width="10" d="M1041.2,1652.6l206.8-361.9l-416.8-1.9l102,176.7l-7.2-12.4l-206.9,119.5
		C607,1363.3,622.6,1108,759.9,912.9l92.3,78l48.2-282L633,805.7l96.2,81.3c-72.4,101.7-114.9,221-123.1,345.9
		c-8.7,131.9,21.8,262.3,88.1,377.1l10.1,17.4l241.8-139.6L1041.2,1652.6z M849.4,770.1l-24.8,145.4l-113-95.5L849.4,770.1z
		 M1179.1,1330.5l-138.2,241.8l-140.3-243.1L1179.1,1330.5z"/>
</g>
</svg>
